<svg xmlns="http://www.w3.org/2000/svg" width="65" height="64" viewBox="0 0 65 64" fill="none"><rect x="0.125" width="64" height="64" rx="32" fill="white"></rect><path d="M32.1268 47.9317L36.6036 22.7543C40.8707 22.7543 42.2167 23.2222 42.411 25.1321C42.411 25.1321 45.2735 24.0647 46.7173 21.897C41.0833 19.2864 35.4225 19.1687 35.4225 19.1687L32.1194 23.1919L32.1268 23.1914L28.8236 19.168C28.8236 19.168 23.1627 19.2859 17.5295 21.8965C18.972 24.0642 21.8357 25.1316 21.8357 25.1316C22.0312 23.2215 23.3755 22.7536 27.614 22.7506L32.1268 47.9317Z" fill="#E82127"></path><path d="M32.125 18.0066C36.6792 17.9718 41.8921 18.7111 47.2284 21.0369C47.9416 19.7532 48.125 19.1858 48.125 19.1858C42.2916 16.8779 36.8286 16.0881 32.1244 16.0683C27.4203 16.0881 21.9577 16.8781 16.125 19.1858C16.125 19.1858 16.3852 19.8847 17.021 21.0369C22.3563 18.7111 27.57 17.9718 32.1244 18.0066H32.125Z" fill="#E82127"></path></svg>